<?xml version="1.0" encoding="UTF-8" standalone="no"?>
<!DOCTYPE svg PUBLIC "-//W3C//DTD SVG 1.1//EN"
 "http://www.w3.org/Graphics/SVG/1.1/DTD/svg11.dtd">
<!-- Generated by graphviz version 2.38.0 (20140413.2041)
 -->
<!-- Title: G Pages: 1 -->
<svg width="423pt" height="292pt"
 viewBox="0.00 0.00 423.09 292.00" xmlns="http://www.w3.org/2000/svg" xmlns:xlink="http://www.w3.org/1999/xlink">
<g id="graph0" class="graph" transform="scale(1 1) rotate(0) translate(4 288)">
<title>G</title>
<polygon fill="white" stroke="none" points="-4,4 -4,-288 419.093,-288 419.093,4 -4,4"/>
<g id="clust1" class="cluster"><title>cluster_Global</title>
<path fill="none" stroke="gray" d="M150.093,-8C150.093,-8 395.093,-8 395.093,-8 401.093,-8 407.093,-14 407.093,-20 407.093,-20 407.093,-264 407.093,-264 407.093,-270 401.093,-276 395.093,-276 395.093,-276 150.093,-276 150.093,-276 144.093,-276 138.093,-270 138.093,-264 138.093,-264 138.093,-20 138.093,-20 138.093,-14 144.093,-8 150.093,-8"/>
<text text-anchor="middle" x="272.593" y="-263.2" font-family="Times New Roman,serif" font-size="11.00" fill="gray">Global</text>
</g>
<g id="clust2" class="cluster"><title>cluster_\controllers</title>
<path fill="none" stroke="gray" d="M333.093,-176C333.093,-176 379.093,-176 379.093,-176 385.093,-176 391.093,-182 391.093,-188 391.093,-188 391.093,-236 391.093,-236 391.093,-242 385.093,-248 379.093,-248 379.093,-248 333.093,-248 333.093,-248 327.093,-248 321.093,-242 321.093,-236 321.093,-236 321.093,-188 321.093,-188 321.093,-182 327.093,-176 333.093,-176"/>
<text text-anchor="middle" x="356.093" y="-235.2" font-family="Times New Roman,serif" font-size="11.00" fill="gray">controllers</text>
</g>
<g id="clust3" class="cluster"><title>cluster_\core</title>
<path fill="none" stroke="gray" d="M325.093,-60C325.093,-60 387.093,-60 387.093,-60 393.093,-60 399.093,-66 399.093,-72 399.093,-72 399.093,-156 399.093,-156 399.093,-162 393.093,-168 387.093,-168 387.093,-168 325.093,-168 325.093,-168 319.093,-168 313.093,-162 313.093,-156 313.093,-156 313.093,-72 313.093,-72 313.093,-66 319.093,-60 325.093,-60"/>
<text text-anchor="middle" x="356.093" y="-155.2" font-family="Times New Roman,serif" font-size="11.00" fill="gray">core</text>
</g>
<g id="clust4" class="cluster"><title>cluster_\core\controllers</title>
<path fill="none" stroke="gray" d="M333.093,-68C333.093,-68 379.093,-68 379.093,-68 385.093,-68 391.093,-74 391.093,-80 391.093,-80 391.093,-128 391.093,-128 391.093,-134 385.093,-140 379.093,-140 379.093,-140 333.093,-140 333.093,-140 327.093,-140 321.093,-134 321.093,-128 321.093,-128 321.093,-80 321.093,-80 321.093,-74 327.093,-68 333.093,-68"/>
<text text-anchor="middle" x="356.093" y="-127.2" font-family="Times New Roman,serif" font-size="11.00" fill="gray">controllers</text>
</g>
<!-- \\controllers\\Main -->
<g id="node1" class="node"><title>\\controllers\\Main</title>
<polygon fill="none" stroke="black" points="383.093,-220 329.093,-220 329.093,-184 383.093,-184 383.093,-220"/>
<text text-anchor="middle" x="356.093" y="-199.2" font-family="Courier,monospace" font-size="11.00">Main</text>
</g>
<!-- \\core\\controllers\\Main -->
<g id="node2" class="node"><title>\\core\\controllers\\Main</title>
<polygon fill="none" stroke="black" points="383.093,-112 329.093,-112 329.093,-76 383.093,-76 383.093,-112"/>
<text text-anchor="middle" x="356.093" y="-91.2" font-family="Courier,monospace" font-size="11.00">Main</text>
</g>
<!-- \\BaseController -->
<g id="node3" class="node"><title>\\BaseController</title>
<polygon fill="none" stroke="black" points="257.093,-108 146.093,-108 146.093,-72 257.093,-72 257.093,-108"/>
<text text-anchor="middle" x="201.593" y="-87.2" font-family="Courier,monospace" font-size="11.00">BaseController</text>
</g>
<!-- \\core\\controllers\\Main&#45;&gt;\\BaseController -->
<g id="edge3" class="edge"><title>\\core\\controllers\\Main&#45;&gt;\\BaseController</title>
<path fill="none" stroke="black" d="M328.878,-93.3124C311.895,-92.8669 288.984,-92.266 267.339,-91.6983"/>
<polygon fill="none" stroke="black" points="267.268,-88.1953 257.179,-91.4318 267.084,-95.1929 267.268,-88.1953"/>
</g>
<!-- \\Prefab -->
<g id="node5" class="node"><title>\\Prefab</title>
<ellipse fill="none" stroke="black" cx="37.0467" cy="-63" rx="37.0935" ry="18"/>
<text text-anchor="middle" x="37.0467" y="-59.3" font-family="Times New Roman,serif" font-size="14.00" fill="gray">\Prefab</text>
</g>
<!-- \\BaseController&#45;&gt;\\Prefab -->
<g id="edge1" class="edge"><title>\\BaseController&#45;&gt;\\Prefab</title>
<path fill="none" stroke="black" d="M146.016,-80.9343C125.281,-77.4902 101.939,-73.6129 82.2768,-70.3469"/>
<polygon fill="none" stroke="black" points="82.8019,-66.8862 72.3635,-68.7002 81.6548,-73.7916 82.8019,-66.8862"/>
</g>
<!-- \\CMF -->
<g id="node4" class="node"><title>\\CMF</title>
<polygon fill="none" stroke="black" points="383.093,-52 329.093,-52 329.093,-16 383.093,-16 383.093,-52"/>
<text text-anchor="middle" x="356.093" y="-31.2" font-family="Courier,monospace" font-size="11.00">CMF</text>
</g>
<!-- \\CMF&#45;&gt;\\Prefab -->
<g id="edge2" class="edge"><title>\\CMF&#45;&gt;\\Prefab</title>
<path fill="none" stroke="black" d="M328.878,-36.3979C275.012,-41.3249 151.292,-52.6415 83.8773,-58.8079"/>
<polygon fill="none" stroke="black" points="83.2,-55.3552 73.5604,-59.7516 83.8377,-62.3261 83.2,-55.3552"/>
</g>
</g>
</svg>
